<svg width="320" height="320" viewBox="0 0 320 320" fill="none" xmlns="http://www.w3.org/2000/svg">
<circle cx="160" cy="160" r="160" fill="#C2C2C2"/>
<path fill-rule="evenodd" clip-rule="evenodd" d="M109.901 250.811C105.985 250.811 102.23 249.255 99.461 246.487V246.487C96.6922 243.718 95.1367 239.962 95.1367 236.047V92.6021C95.1367 88.6864 96.6922 84.931 99.461 82.1622V82.1622C102.23 79.3934 105.985 77.8379 109.901 77.8379H218.751C222.667 77.8379 226.422 79.3934 229.191 82.1622V82.1622C231.96 84.931 233.515 88.6864 233.515 92.6021V236.047C233.515 239.962 231.96 243.718 229.191 246.487V246.487C226.422 249.255 222.667 250.811 218.751 250.811H109.901ZM112.434 95.1352V233.514H216.218V95.1352H172.975V172.973L151.353 147.027L129.731 172.973V95.1352H112.434Z" fill="white"/>
</svg>
